<?xml version="1.0" encoding="UTF-8"?>
<svg id="Layer_1" xmlns="http://www.w3.org/2000/svg" version="1.1" xmlns:xlink="http://www.w3.org/1999/xlink" viewBox="0 0 55.2 55.2">
  <!-- Generator: Adobe Illustrator 29.0.0, SVG Export Plug-In . SVG Version: 2.1.0 Build 186)  -->
  <defs>
    <style>
      .st0 {
        fill: #fff;
      }

      .st1 {
        fill: url(#linear-gradient1);
      }

      .st2 {
        fill: url(#linear-gradient);
      }
    </style>
    <linearGradient id="linear-gradient" x1="-263.8" y1="441.7" x2="-263.5" y2="440.7" gradientTransform="translate(14586.4 24396.4) scale(55.2 -55.2)" gradientUnits="userSpaceOnUse">
      <stop offset="0" stop-color="#3fc1c9"/>
      <stop offset=".7" stop-color="#8fe8ed" stop-opacity=".7"/>
      <stop offset="1" stop-color="#fff" stop-opacity=".3"/>
    </linearGradient>
    <linearGradient id="linear-gradient1" x1="-263.8" y1="441.7" x2="-263.5" y2="440.7" gradientTransform="translate(14586.4 24396.4) scale(55.2 -55.2)" gradientUnits="userSpaceOnUse">
      <stop offset="0" stop-color="#e09f05"/>
      <stop offset="1" stop-color="#df390f"/>
    </linearGradient>
  </defs>
  <g id="Group_4695">
    <g id="Projects">
      <g id="Shape">
        <path id="Path_68" class="st2" d="M10.7,10.8c14.8-14.8,20.1-13.9,34,0s14.2,19.9,0,34-20.4,13.7-34,0-14.8-19.2,0-34Z"/>
        <path id="Path_76" class="st1" d="M10.7,10.8c14.8-14.8,20.1-13.9,34,0s14.2,19.9,0,34-20.4,13.7-34,0-14.8-19.2,0-34Z"/>
      </g>
    </g>
    <g id="Iconly_Bold_Home">
      <g id="Home">
        <path id="Home-2" class="st0" d="M25.1,36.8v-3.1c0-.8.6-1.4,1.4-1.4h0s2.9,0,2.9,0c.4,0,.7.1,1,.4.3.3.4.6.4,1v3.1c0,.3.1.6.4.9.2.2.5.4.9.4h2c.9,0,1.8-.4,2.4-1,.6-.6,1-1.5,1-2.4v-8.7c0-.7-.3-1.4-.9-1.9l-6.7-5.3c-1.2-.9-2.8-.9-3.9,0l-6.5,5.2c-.6.5-.9,1.2-1,1.9v8.7c0,1.9,1.6,3.4,3.5,3.4,0,0,0,0,0,0h1.9c.7,0,1.2-.5,1.2-1.2h0Z"/>
      </g>
    </g>
  </g>
</svg>