<?xml version="1.0" encoding="UTF-8"?>
<svg version="1.1" xmlns="http://www.w3.org/2000/svg" width="1024" height="1024">
<path d="M0 0 C337.92 0 675.84 0 1024 0 C1024 337.92 1024 675.84 1024 1024 C686.08 1024 348.16 1024 0 1024 C0 686.08 0 348.16 0 0 Z " fill="#8C30E9" transform="translate(0,0)"/>
<path d="M0 0 C3.75490913 0.21254203 6.32192826 0.55925337 9.5 2.625 C11.19198234 5.30397203 11.32589199 6.75221372 10.67578125 9.83203125 C9.1576804 14.70223919 7.04241175 19.33243851 5 24 C4.05833394 26.24825961 3.12065646 28.49819511 2.1875 30.75 C1.45833333 32.5 0.72916667 34.25 0 36 C0.5669458 35.89453857 1.1338916 35.78907715 1.71801758 35.68041992 C21.09476175 32.08736836 40.36945787 28.81480272 60 27 C60.96164062 26.90831543 61.92328125 26.81663086 62.9140625 26.72216797 C105.79826197 22.67092726 105.79826197 22.67092726 120 32 C124.87408698 36.40077688 127.64370048 40.79330435 128.375 47.375 C127.89650354 52.00046581 126.65808913 54.20272981 124 58 C122.515 58.495 122.515 58.495 121 59 C121.165 57.700625 121.33 56.40125 121.5 55.0625 C122.92587298 46.70570624 122.92587298 46.70570624 120.5625 39.125 C113.20009983 35.89272676 106.86342905 34.52707935 98.8125 34.6875 C97.85400146 34.6987793 96.89550293 34.71005859 95.90795898 34.72167969 C70.80936592 35.18954652 44.79914567 38.34631287 20.25488281 43.59619141 C16.07188363 44.48321506 12.05105897 45.11649638 7.77734375 45.35546875 C-0.45124582 45.64158881 -0.45124582 45.64158881 -7.44775391 49.38867188 C-10.11695102 53.15669392 -11.63039153 57.37538672 -13.15185547 61.70556641 C-14.26718735 64.72280561 -15.65788162 67.56072464 -17.08056641 70.44287109 C-21.22658519 78.85012665 -25.03986944 87.42398415 -28.89102173 95.96939087 C-29.72396442 97.81724111 -30.55957139 99.66388968 -31.39526367 101.51049805 C-34.44836807 108.31982614 -37.28881027 115.16496018 -39.89404297 122.15844727 C-40.94514173 124.85905179 -42.11513618 127.45387619 -43.375 130.0625 C-46.11591001 135.95545653 -48.17270447 142.04648837 -50.27294922 148.18847656 C-51.94642596 153.06021338 -53.70609151 157.87171276 -55.62963867 162.65014648 C-61.90400475 178.23838221 -66.50555944 194.28395507 -70.375 210.625 C-70.75120483 212.18734375 -70.75120483 212.18734375 -71.13500977 213.78125 C-72.8216679 221.16941185 -73.60288097 228.43633912 -74 236 C-58.08213346 223.17919384 -47.14131544 205.31493544 -35.76953125 188.59765625 C-34.02800559 186.04111196 -32.28055154 183.48872854 -30.53125 180.9375 C-24.96624472 172.81196571 -19.43083033 164.66906257 -13.98828125 156.4609375 C-13.55834869 155.81255417 -13.12841614 155.16417084 -12.68545532 154.49613953 C-12.25332733 153.84442276 -11.82119934 153.19270599 -11.37597656 152.52124023 C12.48253829 116.54338455 12.48253829 116.54338455 19 111 C19.99 111 20.98 111 22 111 C22.45211767 116.1759678 21.11556283 119.26217987 18.375 123.5 C17.97748535 124.1381665 17.5799707 124.77633301 17.17041016 125.43383789 C15.79479651 127.63207161 14.39837964 129.81618483 13 132 C11.93698179 133.67545257 10.87450454 135.35124846 9.8125 137.02734375 C7.45334611 140.74476737 5.08392008 144.4554548 2.7109375 148.1640625 C0.29165925 151.95422294 -2.09919347 155.75967076 -4.4609375 159.5859375 C-11.88979615 171.6179984 -19.54425892 183.47671661 -27.375 195.25 C-27.83745117 195.94751373 -28.29990234 196.64502747 -28.77636719 197.36367798 C-38.01337104 211.28061312 -47.76380435 224.61606023 -59 237 C-59.46696289 237.52529297 -59.93392578 238.05058594 -60.41503906 238.59179688 C-64.19303692 242.76451093 -67.57284695 246.39396551 -73.14453125 247.78515625 C-77.73353001 248.0058356 -81.7468496 247.72951229 -85.5625 245 C-91.65538838 237.50106046 -92.0607232 229.30717757 -91.35351562 219.93310547 C-89.42266011 203.91287192 -85.12916405 187.53320276 -79.3359375 172.5078125 C-78.04518557 169.11864516 -76.96494489 165.7268735 -75.9375 162.25 C-74.31458661 156.84475952 -72.35522042 151.6346796 -70.28515625 146.38671875 C-68.9127918 142.77018385 -67.69320076 139.11564057 -66.5 135.4375 C-64.32619831 128.79965623 -61.77675683 122.4067879 -59 116 C-58.3323646 114.43009912 -57.6657869 112.85974821 -57 111.2890625 C-51.8292273 99.11803487 -46.4700291 87.03923662 -41 75 C-41.67482422 75.85658203 -41.67482422 75.85658203 -42.36328125 76.73046875 C-48.52923193 84.50277933 -54.92853769 92.06404287 -61.37207031 99.60595703 C-74.83382463 114.96930234 -74.83382463 114.96930234 -86.5625 131.625 C-90.33025776 137.80633363 -94.97327661 143.1177659 -99.73681641 148.54003906 C-100.84666634 149.82278019 -101.91701057 151.13948059 -102.98046875 152.4609375 C-107.44867363 157.96183962 -111.62924011 161.35452913 -118.77734375 162.41015625 C-123.71068143 162.66841151 -126.14174801 162.66943656 -130.125 159.5625 C-130.74375 158.716875 -131.3625 157.87125 -132 157 C-132.33 156.67 -132.66 156.34 -133 156 C-134.69024244 134.34131196 -123.49479398 115.10430366 -113 97 C-117.71685481 99.5156559 -121.33467611 102.85665383 -125.1875 106.5 C-126.17943359 107.43440918 -126.17943359 107.43440918 -127.19140625 108.38769531 C-139.28204671 119.88438894 -148.80170534 131.57763748 -155.6875 146.875 C-156.59992585 148.89692545 -157.52022462 150.91532076 -158.44921875 152.9296875 C-158.84455811 153.80866699 -159.23989746 154.68764648 -159.6472168 155.59326172 C-161.13606222 158.24206846 -162.68956234 160.03316876 -165 162 C-167.7265625 162.4609375 -167.7265625 162.4609375 -170.625 162.375 C-171.58664062 162.36210938 -172.54828125 162.34921875 -173.5390625 162.3359375 C-176 162 -176 162 -178 160 C-178.70128122 153.33782839 -177.04991952 148.88198764 -174 143 C-174.44988281 143.35191406 -174.89976562 143.70382812 -175.36328125 144.06640625 C-190.86005816 155.960726 -205.84272748 165.00222908 -226 163 C-230.96898502 161.659283 -234.76680462 159.0571939 -237.90625 154.91015625 C-240.8933743 149.69335702 -242.57715025 143.81022702 -244 138 C-244.40202637 138.39268066 -244.80405273 138.78536133 -245.21826172 139.18994141 C-260.00282768 153.54425752 -260.00282768 153.54425752 -269 158 C-269.6290625 158.36867188 -270.258125 158.73734375 -270.90625 159.1171875 C-275.77326112 161.16932278 -282.22690642 160.91122969 -287.19921875 159.27734375 C-291.00631253 157.23753429 -293.74170376 154.64801701 -296 151 C-296.75 147.6875 -296.75 147.6875 -297 145 C-297.66 145 -298.32 145 -299 145 C-299.26683594 145.57878906 -299.53367187 146.15757812 -299.80859375 146.75390625 C-303.57331547 153.85133244 -309.48330189 159.1747583 -317 162 C-320.50805533 162.78099042 -323.51559708 162.83600519 -326.76171875 161.0078125 C-329.71139189 158.70806734 -331.67276436 156.46029293 -333 153 C-333.28878735 150.59162245 -333.49045026 148.17189532 -333.625 145.75 C-333.69976562 144.48671875 -333.77453125 143.2234375 -333.8515625 141.921875 C-333.90054688 140.95765625 -333.94953125 139.9934375 -334 139 C-334.556875 139.85722656 -335.11375 140.71445312 -335.6875 141.59765625 C-345.9927407 157.17042449 -345.9927407 157.17042449 -353.03125 159.7421875 C-358.04113114 160.68635741 -361.68128574 159.49156592 -366 157 C-369.05078725 154.04215788 -369.94115834 152.48319972 -370.4609375 148.21484375 C-370.4564373 146.78878186 -370.4266698 145.36263262 -370.375 143.9375 C-370.35848389 143.18307617 -370.34196777 142.42865234 -370.32495117 141.65136719 C-369.7947676 124.51787481 -364.44332696 105.44332696 -352 93 C-343.58593614 86.33318652 -337.91625457 82.87020582 -327 84 C-323.44938236 85.31119701 -320.69038672 87.44385514 -317.75 89.8125 C-317.1725 90.204375 -316.595 90.59625 -316 91 C-312.71083425 90.21834965 -312.71083425 90.21834965 -310.6875 86.9375 C-308 84 -308 84 -305 83.375 C-301.18646613 84.16948622 -299.49395977 84.97701846 -297 88 C-297.23522723 93.86830046 -298.72549595 98.11624626 -301.5625 103.25 C-309.96381384 119.30055757 -315.49855166 135.0391502 -318 153 C-311.08220675 148.06105541 -305.46383869 142.49810262 -300 136 C-299.28070313 135.15953125 -298.56140625 134.3190625 -297.8203125 133.453125 C-296.08338767 131.11237652 -295.36049298 129.65944423 -294.6875 126.875 C-285.35564437 93.6091105 -266.89025338 47.70070428 -241 24 C-237.0302461 23.59492307 -234.77061933 24.94799584 -231.625 27.1875 C-229 30 -229 30 -228.5703125 32.61328125 C-229.16516239 37.30177995 -231.06612978 40.84827813 -233.25 45 C-233.92337402 46.31278931 -233.92337402 46.31278931 -234.61035156 47.65209961 C-238.36989855 54.92895473 -242.30341688 62.11105025 -246.24829102 69.28857422 C-270.11196023 107.86547024 -270.11196023 107.86547024 -279 151 C-267.41628464 146.92269947 -257.68029196 136.4306975 -248.61621094 128.38012695 C-247.20669552 127.17650299 -245.7120043 126.07408421 -244.20703125 124.9921875 C-241.45467468 122.50775945 -240.75930447 120.44702097 -239.625 116.9375 C-233.89269727 101.05795331 -223.98021959 91.48000169 -209 84 C-204.53846836 82.20109138 -200.80215694 81.72893791 -196 81.75 C-194.824375 81.74484375 -193.64875 81.7396875 -192.4375 81.734375 C-186.98852421 82.15543222 -182.99007424 83.65819476 -178.6875 87 C-178.01074219 87.515625 -177.33398438 88.03125 -176.63671875 88.5625 C-174.06505475 90.82114523 -173.99851542 92.01385606 -173.625 95.5 C-173.79727879 105.02701687 -180.49523284 112.67069862 -187 119 C-197.03101799 128.33280328 -210.19979303 127.38020417 -223 127 C-224.25286072 131.46540493 -224.25977315 135.76315799 -224.3125 140.375 C-224.34150391 141.21289062 -224.37050781 142.05078125 -224.40039062 142.9140625 C-224.45654893 148.40893704 -223.81880017 151.73192922 -220 156 C-211.96293516 157.93484894 -204.75119755 152.97926759 -198 149 C-190.70807021 144.47814058 -184.03425203 139.35094992 -177.5 133.8125 C-176.92443359 133.32563721 -176.34886719 132.83877441 -175.75585938 132.3371582 C-167.69348528 125.33942487 -163.91541631 118.03297445 -159.625 108.3125 C-150.36790277 87.36790277 -150.36790277 87.36790277 -144 81 C-139.66940082 80.41703473 -137.44942693 80.76302943 -133.5625 82.8125 C-131.38986321 84.79495903 -131.02390208 85.82086021 -130.62890625 88.78125 C-130.62534287 91.54643448 -130.73973407 94.24792883 -131 97 C-130.48953125 96.443125 -129.9790625 95.88625 -129.453125 95.3125 C-114.59302865 79.71466837 -114.59302865 79.71466837 -105.1875 79.25 C-100.70351693 79.69839831 -97.64009735 81.39993047 -94 84 C-91.62365173 87.5645224 -91.3109895 89.88644882 -92 94 C-93.31357285 97.86580559 -94.98358728 101.54247928 -96.6875 105.25 C-97.12255859 106.22324219 -97.55761719 107.19648437 -98.00585938 108.19921875 C-99.74234306 112.0735068 -101.49685807 115.93733357 -103.3137207 119.7746582 C-106.36360554 126.27755016 -108.71789168 132.82106877 -110.8125 139.6875 C-111.12380859 140.68716797 -111.43511719 141.68683594 -111.75585938 142.71679688 C-112.51030583 145.1426324 -113.25824894 147.57025889 -114 150 C-109.79723438 146.92351509 -106.85865402 143.54380727 -103.75 139.4375 C-102.77440712 138.17112743 -101.79783375 136.90550965 -100.8203125 135.640625 C-100.34110352 135.01865234 -99.86189453 134.39667969 -99.36816406 133.75585938 C-97.50118582 131.35983733 -95.56666064 129.02322461 -93.625 126.6875 C-89.83343981 122.09023326 -86.22198683 117.37430239 -82.625 112.625 C-77.78448798 106.24304474 -72.77657411 100.06039812 -67.5546875 93.98828125 C-65.11320771 91.13242186 -62.73693361 88.23426908 -60.375 85.3125 C-55.20403803 78.96798638 -49.74612349 72.90450039 -44.12890625 66.953125 C-43.64019043 66.43097412 -43.15147461 65.90882324 -42.64794922 65.37084961 C-41.26427239 63.89441878 -39.87259719 62.42549574 -38.48046875 60.95703125 C-35.80212037 57.76410256 -33.95844537 54.665808 -32 51 C-32.56203125 51.12117188 -33.1240625 51.24234375 -33.703125 51.3671875 C-50.14744943 54.64596384 -66.77732909 55.35267737 -83.50292969 55.31567383 C-86.52574472 55.31247274 -89.54761443 55.3362445 -92.5703125 55.36132812 C-106.34035293 55.40665933 -121.8207133 55.22613277 -132.73046875 45.44921875 C-135.02102103 42.86352528 -136 41.51325804 -136 38 C-131.77093646 38.85948636 -128.31777751 40.83258816 -124.53515625 42.84375 C-120.46223486 44.70135359 -116.58064741 45.12508597 -112.13720703 45.12939453 C-111.19918243 45.13254669 -110.26115784 45.13569885 -109.29470825 45.13894653 C-108.29253265 45.1369223 -107.29035706 45.13489807 -106.2578125 45.1328125 C-105.2160788 45.13376923 -104.17434509 45.13472595 -103.1010437 45.13571167 C-100.90053243 45.1363912 -98.70001913 45.13455273 -96.49951172 45.13037109 C-93.14415949 45.1250305 -89.78894177 45.13031823 -86.43359375 45.13671875 C-84.29166637 45.13605772 -82.14973908 45.13477603 -80.0078125 45.1328125 C-78.5106218 45.13584885 -78.5106218 45.13584885 -76.98318481 45.13894653 C-71.88288666 45.12192179 -67.04661806 44.83107947 -62 44 C-60.03459008 43.9102097 -58.06893826 43.82181502 -56.10229492 43.76513672 C-52.94117841 43.65176861 -49.79238275 43.410525 -46.63867188 43.17041016 C-44.8373335 43.0540765 -43.03311126 42.97734387 -41.22851562 42.93505859 C-29.53551393 42.65945266 -29.53551393 42.65945266 -19.89013672 36.79931641 C-15.91335262 31.22525734 -13.04635591 25.14951415 -10.29589844 18.89892578 C-8.48834203 14.85542073 -6.38150193 11.00394508 -4.25 7.125 C-3.62842436 5.94103904 -3.0084307 4.75624503 -2.390625 3.5703125 C-1 1 -1 1 0 0 Z " fill="#FBF8FD" transform="translate(742,407)"/>
<path d="M0 0 C3.80288461 0.77786276 5.23763533 2.6851747 7.56640625 5.69140625 C8.75 7.5625 8.75 7.5625 9.5 10.1875 C8.30150135 13.98274574 6.08451011 15.66294662 2.75 17.5625 C-16.5945061 26.13535264 -37.82512821 25.68545738 -58.58777046 25.76173019 C-61.59266707 25.77379384 -64.59743669 25.79331141 -67.60227966 25.81484985 C-76.13544244 25.87553011 -84.66858903 25.93003077 -93.2019043 25.96386719 C-136.41689796 25.28239694 -136.41689796 25.28239694 -178.765625 32.59765625 C-181.70710402 33.41216894 -184.49110039 33.94498231 -187.49609375 34.42578125 C-193.36245251 35.45811256 -198.59091492 37.37346326 -204.0625 39.6875 C-205.01737305 40.08638428 -205.97224609 40.48526855 -206.95605469 40.89624023 C-226.91391538 49.40411246 -244.35424738 61.36790989 -255.25 80.5625 C-255.68570313 81.2328125 -256.12140625 81.903125 -256.5703125 82.59375 C-261.23490804 90.81387641 -260.54702663 102.71130682 -258.5546875 111.69921875 C-257.63702858 114.15530586 -256.57643062 116.30342285 -255.25 118.5625 C-254.8375 119.33722656 -254.425 120.11195313 -254 120.91015625 C-248.41596787 130.41252911 -239.4242334 135.13994449 -229.25 138.5625 C-225.56750265 139.49395907 -221.86902775 140.17897519 -218.125 140.8125 C-216.71927734 141.07160156 -216.71927734 141.07160156 -215.28515625 141.3359375 C-209.85527604 142.2928115 -204.76133149 142.74404974 -199.25 142.5625 C-196.7281645 136.51977606 -194.21161345 130.47500481 -191.71484375 124.421875 C-190.87239583 122.38541667 -190.02994792 120.34895833 -189.1875 118.3125 C-188.76662109 117.28898437 -188.34574219 116.26546875 -187.91210938 115.2109375 C-185.80315153 110.12328106 -183.60787489 105.14245268 -181.09204102 100.24316406 C-180.00148009 98.06646896 -179.1112165 95.83857217 -178.25 93.5625 C-176.77259309 89.77664478 -175.09470498 86.19689087 -173.23046875 82.58984375 C-172.20527667 80.47002427 -171.38467233 78.3311004 -170.5625 76.125 C-166.0464226 64.64226057 -159.52130966 53.91502154 -153.375 43.25 C-152.6787854 42.04065796 -152.6787854 42.04065796 -151.96850586 40.80688477 C-151.52772705 40.04947998 -151.08694824 39.2920752 -150.6328125 38.51171875 C-150.24496582 37.84487061 -149.85711914 37.17802246 -149.45751953 36.4909668 C-148.16212355 34.42215708 -146.73939231 32.49515743 -145.25 30.5625 C-139.97559742 30.88216076 -136.81176651 33.95286029 -133.25 37.5625 C-131.645412 40.771676 -131.87948051 44.07377343 -132.25 47.5625 C-133.20558002 50.18108759 -134.15769325 52.43247076 -135.42578125 54.87890625 C-135.7516069 55.53906235 -136.07743256 56.19921844 -136.41313171 56.87937927 C-137.44823274 58.96896872 -138.50449064 61.04693135 -139.5625 63.125 C-140.60479204 65.20885875 -141.64262973 67.29488741 -142.67973328 69.3813324 C-143.32345772 70.67232154 -143.9709962 71.96141906 -144.62312317 73.2481842 C-146.66443471 77.29083396 -148.49026088 81.39054785 -150.25 85.5625 C-150.99264975 87.20977136 -151.74108707 88.85444929 -152.49609375 90.49609375 C-155.52697503 97.13997616 -158.46210086 103.82469585 -161.38891602 110.51489258 C-162.31290203 112.62591852 -163.2394115 114.73582528 -164.16601562 116.84570312 C-167.31805058 124.03777202 -170.37858217 131.25303297 -173.25 138.5625 C-174.0152792 140.41896594 -174.78517225 142.27354662 -175.5625 144.125 C-177.65924573 149.14036402 -179.74119543 154.16158891 -181.8125 159.1875 C-182.26955322 160.29569092 -182.26955322 160.29569092 -182.73583984 161.42626953 C-184.2505158 165.10618177 -185.74049109 168.79284002 -187.1875 172.5 C-198.32134523 200.31092404 -214.50149702 235.11104544 -242.25 249.5625 C-242.97316406 249.97757813 -243.69632812 250.39265625 -244.44140625 250.8203125 C-253.3229295 255.23790493 -265.1325007 255.17199341 -274.60546875 252.6796875 C-283.6177488 248.84088838 -291.11897741 242.90041171 -296.25 234.5625 C-297.77199443 229.99651671 -297.99716734 226.16357286 -295.9375 221.75 C-294.25 219.5625 -294.25 219.5625 -291.25 217.5625 C-288.625 217.8125 -288.625 217.8125 -286.25 218.5625 C-285.00075566 221.06098869 -285.03492614 223.02521578 -284.875 225.8125 C-284.30093084 232.28766248 -282.73254082 236.35256243 -278.0625 240.9375 C-275.03159451 243.32433807 -272.54125722 244.47739643 -268.546875 244.14453125 C-250.36068173 239.53612513 -238.919484 224.61113874 -229.76123047 209.34985352 C-220.81416555 193.95772197 -214.11513125 177.55152229 -207.34277344 161.12182617 C-206.44194127 159.01203537 -205.49050817 156.9737868 -204.4375 154.9375 C-203.1009288 152.70691272 -203.1009288 152.70691272 -203.25 150.5625 C-204.219375 150.53671875 -205.18875 150.5109375 -206.1875 150.484375 C-227.5727589 149.68155223 -247.15462214 143.45779548 -262.25 127.5625 C-271.8238656 116.46259877 -278.74047755 104.18227766 -278.58984375 89.26953125 C-276.82683416 70.03854154 -264.02668892 55.06004795 -250.04296875 42.7890625 C-224.96259882 22.79492144 -190.67923917 12.17992882 -158.88085938 11.01098633 C-157.77591881 10.96888188 -156.67097824 10.92677744 -155.53255463 10.8833971 C-145.12001187 10.51270489 -134.71399979 10.41257512 -124.29570007 10.39383507 C-119.89897786 10.38386884 -115.50238199 10.35798752 -111.10572052 10.33351612 C-102.99350828 10.28863434 -94.88137318 10.25020285 -86.76904297 10.23657227 C-81.0535977 10.22635519 -75.33851502 10.19671933 -69.62321472 10.15525246 C-67.48360462 10.14316057 -65.34394299 10.13777992 -63.20429993 10.14005089 C-43.73640084 10.15564822 -22.89048198 8.69734217 -4.25 2.5625 C-2.25 0.5625 -2.25 0.5625 0 0 Z " fill="#FCF9FE" transform="translate(537.25,370.4375)"/>
<path d="M0 0 C3.51153081 0 5.88235409 0.14398484 8.71875 2.31640625 C10 4 10 4 9.9375 7.9375 C8.76002988 15.74931789 5.94803105 23.00383139 2.625 30.12890625 C-0.06416748 35.98752056 -2.21631218 41.94970373 -4.25 48.0625 C-4.7759375 49.5794043 -4.7759375 49.5794043 -5.3125 51.12695312 C-7.42503792 57.43612889 -8.67305332 63.34994123 -9 70 C-2.7043641 65.96129018 1.38552478 61.26354204 5.85400391 55.38720703 C9.31390715 50.83823013 12.98357788 46.58804122 16.87109375 42.39453125 C19.82557627 39.07141605 22.45717945 35.5233931 25.078125 31.93359375 C27.35386281 29.64397949 28.83536148 29.31100758 32 29 C32.85444401 31.37308988 33.20510086 32.52491943 32.18652344 34.88427734 C31.74856445 35.5283252 31.31060547 36.17237305 30.859375 36.8359375 C30.37122314 37.56369385 29.88307129 38.2914502 29.38012695 39.04125977 C28.57321411 40.19646118 28.57321411 40.19646118 27.75 41.375 C27.2036792 42.17284912 26.6573584 42.97069824 26.09448242 43.79272461 C4.68685789 74.73200826 4.68685789 74.73200826 -7 78 C-11.83066543 78.70385463 -15.58031802 78.75514999 -19.9375 76.4375 C-24.6054255 70.92086077 -25.23469033 67.24850235 -24.8125 60.125 C-24.08518364 51.61054981 -22.1706538 43.69062553 -19.0625 35.75 C-18.76819092 34.99565674 -18.47388184 34.24131348 -18.1706543 33.46411133 C-15.57109844 27.02196193 -12.52446843 20.84408599 -9.3125 14.6875 C-8.8491626 13.79836914 -8.3858252 12.90923828 -7.90844727 11.99316406 C-3.24125873 3.24795554 -3.24125873 3.24795554 0 0 Z " fill="#FBF8FD" transform="translate(179,490)"/>
<path d="M0 0 C2.3265812 2.3265812 2.34237251 2.88971833 2.4375 6.0625 C2.27538715 11.72744353 0.09800174 15.37105101 -3 20 C-3.66644531 21.00160156 -4.33289063 22.00320313 -5.01953125 23.03515625 C-10.11815266 30.52682589 -15.48173704 37.81160789 -21 45 C-22.10794922 46.4540625 -22.10794922 46.4540625 -23.23828125 47.9375 C-23.94339844 48.845 -24.64851563 49.7525 -25.375 50.6875 C-26.31472656 51.89986328 -26.31472656 51.89986328 -27.2734375 53.13671875 C-29 55 -29 55 -32 56 C-33.34194813 39.82206978 -25.70234233 23.00293202 -15.9375 10.375 C-5.84803427 -1.33669355 -5.84803427 -1.33669355 0 0 Z " fill="#8F36E9" transform="translate(419,500)"/>
<path d="M0 0 C0.08627562 5.32443796 -0.55064559 9.06107106 -4.0625 13.1875 C-10.17285196 19.48605582 -18.21666034 26.71923263 -27.359375 27.09765625 C-28.14828125 27.08605469 -28.9371875 27.07445312 -29.75 27.0625 C-30.54921875 27.05347656 -31.3484375 27.04445313 -32.171875 27.03515625 C-32.77515625 27.02355469 -33.3784375 27.01195312 -34 27 C-30.78734038 16.71948921 -21.10028794 7.39276323 -12 2 C-7.84854809 0.22080632 -4.50137757 -0.21435131 0 0 Z " fill="#8F37E9" transform="translate(556,498)"/>
<path d="M0 0 C3.96355387 1.04500479 6.73710082 3.20708187 9.07421875 6.546875 C9.51388678 10.5038873 8.84192489 12.50241554 6.4921875 15.69921875 C-0.16311966 23.4473974 -0.16311966 23.4473974 -3.80078125 23.921875 C-7.58774318 23.46743957 -8.5950443 22.48187708 -10.92578125 19.546875 C-13.01781896 15.36279958 -11.77429948 10.00307915 -10.92578125 5.546875 C-8.10310411 1.09902011 -5.38068445 -0.36896122 0 0 Z " fill="#FBF9FE" transform="translate(196.92578125,460.453125)"/>
<path d="M0 0 C0.33 0.66 0.66 1.32 1 2 C0.36328125 3.875 0.36328125 3.875 -0.6875 6 C-1.02136719 6.70125 -1.35523438 7.4025 -1.69921875 8.125 C-3.25150248 10.3625261 -4.46159468 11.06811889 -7 12 C-7.99 12 -8.98 12 -10 12 C-9.52949219 11.46890625 -9.05898438 10.9378125 -8.57421875 10.390625 C-7.95160156 9.68421875 -7.32898438 8.9778125 -6.6875 8.25 C-6.07261719 7.55390625 -5.45773437 6.8578125 -4.82421875 6.140625 C-3.12685266 4.14885494 -1.54522191 2.11101085 0 0 Z " fill="#9D50EC" transform="translate(701,481)"/>
</svg>
